<svg version="1.2" baseProfile="tiny" xmlns="http://www.w3.org/2000/svg" width="1200" height="1200" viewBox="-453.5 -429.5 1200 1200"><path fill="#FFF" stroke="#000" stroke-width=".25" stroke-miterlimit="10" d="M-314.619 473.586c0-.352 447.537-620.578 447.537-620.578l125.25.061 93.25.061L20.559 161.438c-181.967 169.57-335.178 312.429-335.178 312.148z"/><path d="M-151.945 246.988s-1.004-3.094-2.074-6.199c-8.217-23.832-12.941-47.055-15.098-74.199-.496-6.262-.664-29.418-.266-36.656 3.525-63.947 27.285-123.941 68.443-172.822 6.996-8.305 19.205-21.002 26.854-27.924 31.451-28.467 67.695-49.479 107.539-62.352 23.744-7.668 47.887-12.08 74.602-13.629 7.123-.416 23.66-.053 23.66-.053l-283.66 393.834zM-314.619 473.461c0-.352 666.037-620.453 666.037-620.453l129.516.061 129.516.061c-.001-.001-925.069 620.612-925.069 620.331z"/><g fill="#350000"><path d="M413.539 156.73c-.004-1.918-.371-5.457-.746-7.141-.73-3.305-3.984-7.504-9.211-11.895-15.75-13.227-33.148-24.781-51.84-34.43a606.434 606.434 0 01-4.633-2.406c-.039-.029-.191-.77-.336-1.645l-.262-1.588 3.336-3.418c13.5-13.824 24.188-28.023 34.012-45.18 7.496-13.09 8.191-17.969 4.129-28.953-1.109-3.002-1.117-3.314-.102-3.322.832-.008 8.258 18.111 12.445 30.355 2.531 7.402 6.969 22.619 6.969 23.898 0 .465-1.191.801-1.313.371-1.688-5.838-3.383-9.66-5.031-11.307-.934-.934-1.219-1.082-2.07-1.082-.895 0-1.133.143-2.477 1.5-.82.824-2.5 3.012-3.742 4.859s-3.078 4.494-4.078 5.881c-1.008 1.385-1.906 2.643-1.996 2.795-.094.152.309 2.313.895 4.801 3.023 12.863 5.051 25.314 6.02 37.041.215 2.578.434 5.008.492 5.402.082.59.535 1.035 2.441 2.434 1.289.938 4.016 3.023 6.063 4.625 3.641 2.852 6.492 4.582 7.559 4.582.746 0 1.723-.832 2.301-1.965.836-1.633 1.195-4.293 1.203-8.898l.008-4.258h.688c.629 0 .703.086.82 1.02.609 4.656.832 24.406.375 33.262-.328 6.289-.324 6.281-1.207 6.281h-.707l-.005-1.619zM334.375 237.078c-3.48-2.102-6.383-3.875-6.453-3.949-.07-.07.578-1.508 1.441-3.195 5.398-10.535 11.016-24.738 14.328-36.262 2.969-10.305 5.836-24.535 6.629-32.883.113-1.172.281-1.805.504-1.891.32-.121 14.73.332 14.844.469.027.035 0 .672-.063 1.418l-.117 1.355-1.898.293c-3.887.605-6.813 2.828-8.836 6.715-1.402 2.703-2.016 4.645-3.273 10.32-.594 2.707-1.516 6.633-2.051 8.719-.535 2.094-.934 3.828-.887 3.859.125.094 47.703 12.824 48.918 13.094 1.746.383 4.082.293 5.176-.203 2.344-1.063 4.297-4.914 5.746-11.309.746-3.293.816-3.477 1.34-3.414.301.035.605.121.672.191.305.305-2.641 12.738-4.781 20.18-3.398 11.816-10.078 30.086-10.992 30.078-1.074-.008-1.07-.328.055-3.055 2.133-5.168 2.859-8.785 2.313-11.438-.359-1.727-1.344-2.883-3.363-3.961-1.102-.586-48.598-16.82-49.215-16.82-.07 0-.547 1.16-1.055 2.578-.512 1.422-1.93 5.086-3.16 8.152-1.227 3.066-2.457 6.309-2.734 7.199-1.793 5.785-.543 11.125 3.324 14.176l1.172.926-.633 1.242-.625 1.238-6.326-3.822zM303.777 356.391c-.219-.242-.398-.508-.398-.59s1.055-.98 2.344-1.992c4.164-3.281 6.32-5.727 7.285-8.27.871-2.289.379-4.105-1.84-6.836-3.391-4.172-30.234-34.426-31.113-35.063-2.301-1.68-3.598-1.902-6.066-1.055-1.707.586-3.258 1.527-5.828 3.527-1.086.848-2.086 1.477-2.219 1.395-.133-.078-.34-.336-.465-.57-.191-.352-.012-.594 1.012-1.367 2.18-1.656 8.121-6.586 11.086-9.203 5.328-4.703 10.531-9.766 17.453-16.969 10.074-10.484 13.766-13.656 18.797-16.141 4.02-1.992 5.98-2.523 9.359-2.535 2.836-.012 2.906 0 4.738.875 7.426 3.543 8.262 12.906 2.223 24.887-.836 1.664-1.953 3.727-2.477 4.586-.527.859-.922 1.594-.883 1.641.227.234 11.078-2.242 17.758-4.055 12.758-3.469 19.281-5.902 24.051-8.992 2.965-1.918 7.465-6.523 10.348-10.602 2.141-3.027 2.266-3.156 2.82-2.898.32.141.578.332.578.418s-1.281 2.371-2.852 5.086c-3.285 5.668-7.855 12.895-11.664 18.441l-2.641 3.844-3.723 1.215c-8.262 2.695-18.816 5.508-27.324 7.281-4.465.93-12.859 2.395-15.363 2.676l-1.527.172-3.813 3.867c-2.094 2.125-3.805 3.922-3.809 3.996s3.48 3.59 7.738 7.82c8.457 8.402 9.188 8.969 11.57 8.969 2.551 0 6.016-2.246 10.039-6.496l2.484-2.625.539.57.539.574-7.516 7.559c-9.766 9.813-16.191 15.637-25.516 23.113-5.606 4.497-5.255 4.262-5.724 3.747zM183.863 411.578c0-.664.102-.727 2.547-1.57 3.094-1.07 5.523-2.266 6.723-3.316 2.668-2.332 5.234-6.957 8.586-15.473 5.363-13.621 9.219-26.094 12.262-39.672 1.133-5.047 2.68-13.195 3.18-16.793.188-1.313.188-1.316 1.563-1.973l1.367-.66 4.867 3.199c15.922 10.465 33.313 19.367 50.391 25.793 9.82 3.699 14.086 3.559 21.293-.707l2.48-1.465.496.496c.273.273.449.539.391.59s-1.996 1.441-4.309 3.086a302.932 302.932 0 01-25.078 16.09c-5.25 3.008-11.383 6.289-11.5 6.152a6.455 6.455 0 01-.344-.609c-.254-.484-.141-.602 1.586-1.645 4.195-2.531 6.383-4.555 7.023-6.484.637-1.93-1.18-3.469-7.613-6.445a268.036 268.036 0 01-6.246-2.988l-2.461-1.234-6.063 2.977c-10.016 4.918-20.379 9.336-29.223 12.449a299.474 299.474 0 01-4.051 1.414c-.18.055-.898 1.715-1.594 3.688a754.297 754.297 0 01-2.609 7.242c-.738 2.004-1.473 4.406-1.633 5.336-.27 1.578-.258 1.734.203 2.352.828 1.117 1.641 1.387 4.164 1.355 2.234-.027 4.613-.465 8.266-1.52.914-.266 1.688-.461 1.719-.43s.129.344.219.695l.16.641-5.84 1.922a299.718 299.718 0 01-17.484 5.176c-3.684.969-12.578 3.023-13.094 3.023-.219 0-.344-.254-.344-.692zM109.342 417.625c-10.674-.707-23.965-2.516-34.92-4.754-4.607-.941-15.363-3.574-18.961-4.645-2.096-.617-2.273-.719-2.215-1.242.037-.313.117-.617.18-.68.061-.063 1.545.281 3.295.758 4.34 1.184 6.092 1.445 8.795 1.316 3.814-.184 5.279-1.191 6.523-4.473.688-1.816 10.037-44.57 10.223-46.742.221-2.602-.041-3.801-1.078-4.953-1.732-1.93-3.908-3.004-9.123-4.508-1.711-.492-1.758-.523-1.602-1.148.09-.355.184-.664.209-.691.029-.027.963.219 2.082.547 5.914 1.73 14.969 3.762 21.809 4.887 6.609 1.094 10.807 1.578 22.822 2.656 20.488 1.836 26.689 2.961 33.936 6.133 12.477 5.465 19.57 14.742 19.582 25.613.004 4.371-1.051 8.125-3.332 11.813-6.977 11.289-22.16 18.426-42.6 20.035-2.819.219-12.705.269-15.625.078zM-72.67 326.828c.107 0 1.035.738 2.063 1.641 2.313 2.023 4.768 3.898 6.225 4.754 4.113 2.41 9.703 2.98 19.553 1.996 20.332-2.027 39.875-6.695 57.664-13.762l4.531-1.801 1.348.855c.742.473 1.369.871 1.395.895.023.016.217 2.406.428 5.309 1.186 16.254 3.705 31.926 7.709 47.918 3.852 15.391 5.832 20.414 9.449 23.957 2.152 2.105 6.139 4.402 10.119 5.824.523.188.313 1.383-.238 1.359-.217-.016-2.391-.703-4.832-1.535-10.713-3.648-20.33-7.613-30.84-12.715-4.092-1.984-11.291-5.715-11.59-6.008-.035-.031.057-.336.209-.672l.277-.609 2.313 1.07c5.252 2.438 8.654 3.203 10.35 2.32 1.689-.875 1.758-2.797.328-9.316a555.645 555.645 0 01-1.547-7.301c-.385-1.902-.729-3.484-.762-3.516-.031-.031-1.463-.844-3.18-1.801-11.164-6.23-22.918-14.043-33.338-22.156l-4.268-3.32-3.996.633c-2.199.348-5.564.84-7.479 1.09-5.707.758-7.447 1.336-8.098 2.688-.4.836.084 2.438 1.279 4.254.898 1.363 5.375 5.988 7.73 7.988l1.27 1.082-.463.574-.463.57-2.877-2.328c-8.334-6.742-15.775-13.477-24.633-22.305-6.568-6.547-6.688-6.684-6.264-7.152"/></g><g fill="#FFF"><path d="M390.402 118.449c-.063-.43-.18-1.59-.258-2.582-.57-7.207-2.234-18.66-3.953-27.238-1-4.961-2.219-10.281-2.414-10.51-.086-.105-.852.703-1.695 1.793-4.289 5.543-10.043 12.102-15.875 18.088l-3.77 3.871 2.332 1.273c6.141 3.348 20.727 12.512 24.414 15.336 1.215.934 1.368.926 1.219-.031zM312.168 306.305c5.352-5.828 8.492-10.672 10.215-15.789 1.035-3.066 1.23-6.992.473-9.438-1.281-4.133-5.195-6.809-9.945-6.809-5.32 0-10.578 2.695-16.133 8.266-2.648 2.66-7.797 9.043-7.797 9.668 0 .145 4.117 4.434 9.148 9.523l9.148 9.266 1.422-1.238c.789-.68 2.344-2.231 3.469-3.449zM223.34 374.914c2.508-1 6.289-2.574 8.402-3.492 4.359-1.898 15.238-7.164 15.238-7.375 0-.078-1.699-1.055-3.773-2.18-6.703-3.625-13.703-7.805-19.262-11.508-1.598-1.063-2.98-1.93-3.078-1.93s-.699 2.402-1.348 5.34c-1.352 6.184-3.633 14.898-5.391 20.613-.676 2.191-1.227 4.094-1.227 4.227.001.286 4.099-1.164 10.439-3.695zM120.75 413.844c14.148-1.766 25.34-8.18 29.84-17.102.344-.684.918-2.195 1.273-3.359.602-1.941.656-2.445.66-6.195.004-3.43-.082-4.414-.527-6.191-2.016-8.012-7.387-14.012-16.492-18.418-8.445-4.09-18.832-5.988-32.766-5.988h-5.664l-4.141 26.91c-2.277 14.805-4.055 26.996-3.945 27.094.594.543 10.656 2.605 15.672 3.211 3.754.452 12.61.475 16.09.038zM10.07 359.172c-1.334-8.113-2.662-19.273-3-25.188-.086-1.539-.229-2.914-.313-3.051-.1-.16-1.145.098-2.906.723-6.545 2.305-15.777 4.887-23.984 6.703-2.439.539-4.473 1.016-4.52 1.063-.26.262 11.682 8.961 18.461 13.453 4.805 3.188 16.307 10.172 16.777 10.188.071.003-.161-1.75-.515-3.891z"/></g></svg>