<svg version="1.1" xmlns="http://www.w3.org/2000/svg" viewBox="0 0 552.5000000000009 544.1822204344311">
  <!-- svg-source:excalidraw -->
  <g transform="translate(10 10) rotate(0 176.58527755430418 177.80732099758654)"><path d="M239.84687956468133 12.739148756817883 C256.0130944624593 15.955466868416968, 272.6820387545123 27.255532020402974, 286.35477499566844 37.88677864157981 C300.0275112368246 48.518025262756645, 312.0907773609326 62.39338930264228, 321.883297011618 76.52662848387891 C331.6758166623035 90.65986766511554, 340.02074557870975 106.26638699523656, 345.10989289978124 122.6862137289996 C350.19904022085274 139.10604046276265, 352.18481357880563 157.51751538993727, 352.41818093804704 175.0455888864572 C352.65154829728846 192.57366238297715, 351.09517665894765 211.38119876622656, 346.51009705522983 227.85465470811926 C341.925017451512 244.32811065001195, 334.26954135299604 259.630167836702, 324.90770331574026 273.8863245378134 C315.5458652784845 288.14248123892474, 303.65490111839244 302.2022490036859, 290.3390688316953 313.39159491478745 C277.0232365449981 324.580940825889, 260.9367611223178 334.13917757175733, 245.0127095955571 341.02240000442265 C229.0886580687964 347.90562243708797, 211.74496121663205 352.8047275070618, 194.79475967113112 354.69092951077926 C177.8445581256302 356.5771315144967, 160.10956673362043 355.6874785575849, 143.31150032255158 352.33961202672754 C126.51343391148274 348.9917454958702, 109.19420045562308 342.7673378242369, 94.00636120471802 334.6037303256353 C78.81852195381296 326.4401228270337, 64.33904700039021 315.4338775278371, 52.18446481712124 303.35796703511784 C40.02988263385227 291.28205654239855, 29.114484028524906 277.28786632373425, 21.078868105104192 262.1482673693197 C13.043252181683476 247.00866841490512, 7.418704378333061 229.5008571273415, 3.97076927659694 212.52037330863038 C0.5228341748608187 195.53988948991926, -1.3511302551527014 177.41713430777259, 0.3912574946874656 160.26536445705295 C2.1336452445276324 143.11359460633332, 7.635612163711869 125.42356347764868, 14.425095775637942 109.60975420431258 C21.214579387564015 93.79594493097648, 30.35562981524204 78.78524071176787, 41.128159166243904 65.38250881703635 C51.90068851724577 51.97977692230484, 64.76077221948576 38.814477249929446, 79.06027188164913 29.193362835923523 C93.3597715438125 19.5722484219176, 110.38521850574882 12.4073222189338, 126.92515713922415 7.655822333000799 C143.4650957726995 2.9043224470677984, 161.38266777049765 0.6455196618774247, 178.2999036825011 0.684363520325519 C195.21713959450457 0.7232073787736132, 217.38108769557113 5.608895542768741, 228.428572611245 7.888885483689364 C239.47605752691885 10.168875424609988, 241.35365050539818 12.347566526734942, 244.58481317654434 14.364303165849265 C247.8159758476905 16.38103980496359, 248.87965085195447 17.3168185774547, 247.81554863812198 19.9893053183753 M107.93797929436298 14.024321531870669 C121.52930389111754 5.16485266197027, 140.8768826145416 3.8294840516405957, 157.82652174835246 2.1557116099335474 C174.7761608821633 0.48193916822649885, 192.5311082605661 0.6618680310578022, 209.63581409722806 3.9816868816283773 C226.74051993389003 7.301505732198953, 245.1115976065101 14.017533543942514, 260.45475676832416 22.074624713356997 C275.79791593013823 30.13171588277148, 289.71985361712893 40.382336243902756, 301.6947690681124 52.32423389811527 C313.6696845190959 64.26613155232778, 324.0986042775873 78.56791729167365, 332.3042494742249 93.72601063863208 C340.5098946708625 108.8841039855905, 347.81458120037286 126.07230091501697, 350.928640247938 143.2727939798658 C354.04269929550316 160.47328704471465, 352.867387922287 179.5311542033002, 350.98860375961567 196.92896902772512 C349.10981959694436 214.32678385215004, 346.20141503167184 231.73406824578424, 339.6559352719102 247.65968292641543 C333.1104555121486 263.5852976070466, 322.6061859884746 279.1745683672859, 311.715725201046 292.4826571115122 C300.8252644136174 305.7907458557385, 288.50021458944667 318.09962963727054, 274.31317054733853 327.50821539177326 C260.1261265052304 336.916801146276, 243.1035796614214 344.02451682778405, 226.59346094839717 348.9341716385285 C210.08334223537292 353.8438264492729, 192.5140947509939 357.1817818346403, 175.25245826919317 356.9661442562399 C157.99082178739243 356.7505066778395, 139.2103296572859 352.8789743059551, 123.02364205759275 347.64034616812614 C106.83695445789961 342.40171803029716, 92.01109835497321 335.2475554491887, 78.1323326710343 325.5343754292659 C64.2535669870954 315.82119540934303, 50.52481159536442 302.87496110588467, 39.75104795395933 289.36126604858896 C28.97728431255424 275.84757099129325, 20.12297338876705 260.8219163101184, 13.489750822603753 244.45220508549158 C6.8565282564404555 228.0824938608648, 1.470002096550142 208.53707695856406, -0.04828744302045607 191.14299870082812 C-1.566576982591054 173.74892044309217, 0.6366613859657093 156.68999807409176, 4.380013585180166 140.08773553907585 C8.123365784394622 123.48547300405994, 14.317119317069803 106.45052682068082, 22.41182575226628 91.52942349073265 C30.50653218746276 76.60832016078449, 40.66064695170031 62.74737494099819, 52.948252196359036 50.56111555938682 C65.23585744101777 38.37485617777545, 87.0989688887392 24.650541984246043, 96.13745722021866 18.41186720106441 C105.17594555169813 12.173192417882778, 105.04575912300358 13.325698645880587, 107.1791821852359 13.12906686029703 C109.31260524746823 12.932435074713473, 107.55194328532977 14.416958469436503, 108.93799559361261 17.232076487563063" stroke="none" stroke-width="0" fill="#4c6ef5ae"></path><path d="M125.51141642954602 7.426253058691515 C140.27637323062365 -0.05479987990579094, 159.92547966733514 0.4108185971224003, 177.27501182186538 0.5030250253282702 C194.6245439763956 0.5952314535341401, 213.07166083032467 2.8721547811060475, 229.60860935672753 7.979491627926734 C246.14555788313038 13.08682847474742, 262.5475308736719 21.300532339227466, 276.4967029802824 31.14704610625239 C290.4458750868929 40.99355987327731, 302.7921430019717 53.70603636231119, 313.3036419963904 67.05857423007629 C323.81514099080914 80.4111120978414, 333.1632864982613 95.33334723000877, 339.5656969467949 111.26227331284299 C345.9681073953285 127.19119939567722, 350.0237330555368 145.46388120176792, 351.7181046875919 162.6321307270816 C353.412476319647 179.80038025239529, 353.07771192025194 197.30012567367856, 349.73192673912547 214.27177046472514 C346.386141557999 231.2434152557717, 339.9374226662348 249.23752999807792, 331.64339360083295 264.46199947336095 C323.3493645354311 279.68646894864395, 312.24170573695994 293.8246000166484, 299.9677523467143 305.61858731642326 C287.69379895646864 317.4125746161981, 273.32561014619046 327.37663922361287, 257.99967325935893 335.22592327201016 C242.6737363725274 343.07520732040746, 225.1163265454859 349.54304445050474, 208.01213102572515 352.7142916068069 C190.90793550596442 355.8855387631091, 172.27358436279007 356.13210079079977, 155.3745001407945 354.2534062098232 C138.47541591879894 352.3747116288466, 122.26700248945447 348.5038116324125, 106.6176256937518 341.44212412094737 C90.96824889804914 334.3804366094822, 74.75502936656376 323.1832055996622, 61.47823936657852 311.88328114103217 C48.20144936659328 300.58335668240215, 36.299534024462446 288.02303783293223, 26.956885693840377 273.6425773691672 C17.614237363218308 259.2621169054022, 9.78324152588328 242.25499580430403, 5.422349382846107 225.60051835844195 C1.0614572398089352 208.94604091257986, 0.22739519434360034 191.1115438723757, 0.7915328356173461 173.71571269399462 C1.3556704768910919 156.31988151561353, 3.367880605763034 137.70888708412116, 8.807175230488582 121.22553128815534 C14.24646985521413 104.74217549218952, 23.34006791475899 88.88781124702541, 33.427300583970634 74.81557791819972 C43.51453325318228 60.74334458937403, 55.81317979075529 47.37948416174256, 69.33057124575845 36.7921313152012 C82.84796270076161 26.204778468659846, 103.94451712075802 16.46621706910564, 114.53164931398959 11.291460838951593 C125.11878150722116 6.116704608797548, 128.67367326971487 6.292460849940909, 132.85336440514783 5.74359393427693 C137.0330555405808 5.1947270186129515, 138.8584908099226 5.2912502227699605, 139.60979612658727 7.998259344967721 M257.1271725131324 18.646534478313697 C272.7815240057049 23.422942237388533, 288.01604293861215 38.33400368539913, 300.2205940385294 50.51920588900971 C312.4251451384466 62.70440809262029, 321.9365405973105 76.39219395403819, 330.3544791126359 91.75774769997719 C338.77241762796126 107.12330144591618, 346.9181062005884 125.95794251289473, 350.72822513048163 142.71252836464373 C354.53834406037487 159.46711421639273, 354.946066168426 175.0779124513199, 353.2151926919952 192.2852628104712 C351.48431921556437 209.49261316962253, 346.8521421588241 229.53120078787748, 340.3429842718966 245.95663051955165 C333.83382638496914 262.3820602512258, 325.2194119748781 277.8786481143636, 314.16024537043035 290.8378412005162 C303.1010787659826 303.7970342866688, 288.1707844399325 314.0130390021189, 273.9879846452103 323.71178903646717 C259.8051848504881 333.41053907081545, 245.04579249977783 343.675952817934, 229.0634466020972 349.030341406606 C213.08110070441657 354.384729995278, 195.4802156755617 355.9099231894629, 178.09390925912652 355.8381205684991 C160.70760284269133 355.7663179475353, 141.4114886158407 353.420187033931, 124.745608103486 348.59952568082315 C108.07972759113132 343.7788643277153, 92.03930282623924 336.82816212217944, 78.09862618499837 326.91415244985205 C64.1579495437575 317.0001427775247, 51.77470305756911 302.80820260651984, 41.101548256040815 289.1154676468589 C30.428393454512516 275.422732687198, 20.711979824494673 260.60932688202695, 14.059697375828591 244.7577426918865 C7.4074149271625105 228.90615850174603, 3.155678192280334 210.97360982524347, 1.1878535640443317 194.00596250601612 C-0.7799710641916704 177.03831518678876, -1.2697474827064306 159.97191291007985, 2.2527496064125785 142.95185877652244 C5.775246695531587 125.93180464296505, 14.09271362173893 107.28481031122841, 22.322836098758387 91.88563770467174 C30.552958575777843 76.48646509811506, 39.75966325564304 62.461332417456106, 51.63348446852932 50.55682313718242 C63.507305681415595 38.652313856908734, 78.05016868357474 28.190076185587042, 93.56576337607606 20.458582023029635 C109.08135806857739 12.727087860472228, 127.63586194411407 7.616156897217763, 144.72705262353725 4.167858161837984 C161.8182433029604 0.7195594264582041, 179.1803288559723 -1.7665084431285198, 196.1129074526151 -0.2312103892490427 C213.0454860492579 1.3040876646304345, 236.06903732172523 10.099546673600718, 246.3225242033941 13.379646485114847 C256.576011085063 16.659746296628978, 255.8656754190713 17.73901114193875, 257.63382874262834 19.449388479835733 C259.4019820661854 21.159765817732715, 258.07241194167335 20.798897393459182, 256.9314441447363 23.641910512496736" stroke="#000000" stroke-width="1" fill="none"></path></g><g transform="translate(189.32944489139254 11.500804505228302) rotate(0 176.58527755430418 177.80732099758654)"><path d="M152.60910972000661 2.559106793091928 C168.40464956333963 -2.594061237639342, 187.40579365892108 0.3788016841278363, 204.3605775322293 2.848265665874976 C221.31536140553754 5.317729647622116, 239.09479194762557 9.918892952803976, 254.33781295985608 17.375890683574767 C269.58083397208657 24.832888414345557, 283.33971900431646 35.78401776934994, 295.81870360561237 47.590252050499714 C308.2976882069083 59.39648633164949, 320.3784750528864 73.47392404164023, 329.21172056763146 88.21329637047342 C338.0449660823765 102.9526686993066, 344.76751431307065 119.27165450248681, 348.8181766940826 136.02648602349882 C352.8688390750945 152.7813175445108, 354.7618063369856 171.42429333356014, 353.515694853703 188.74228549654543 C352.2695833704204 206.06027765953073, 347.60030404692924 223.7256409433286, 341.3415077943868 239.9344390014105 C335.0827115418444 256.14323705949244, 326.34782726196437 272.13675827077736, 315.96291733844856 285.9950738450368 C305.57800741493276 299.85338941929626, 292.9538530247867 313.0770305421144, 279.03204825329186 323.0843324469671 C265.110243481797 333.0916343518198, 248.86548996442184 340.6847322079159, 232.43208870947944 346.0388852741529 C215.99868745453705 351.3930383403899, 197.54169040188185 354.6820589382568, 180.43164072363743 355.2092508443891 C163.321591045393 355.7364427505214, 146.2243378658693 353.8183319898685, 129.77179064001282 349.20203671094663 C113.31924341415633 344.58574143202475, 96.32849305574258 336.8727717753872, 81.71635736849848 327.51147917085785 C67.10422168125437 318.1501865663285, 53.151543817644985 306.2075458825181, 42.09897651654816 293.03428108377057 C31.04640921545134 279.861016285023, 22.268925496338372 264.2052463990374, 15.400953561917532 248.4718903783726 C8.532981627496692 232.7385343577078, 2.9823480866746572 215.6016629380278, 0.8911449100231152 198.63414495978193 C-1.2000582666284267 181.66662698153607, -0.1514303735960092 163.73381817265837, 2.8537345020082796 146.66678250889748 C5.858899377612568 129.5997468451366, 10.976421230809425 111.7305976817403, 18.92213416364885 96.23193097721659 C26.867847096488273 80.73326427269288, 38.43762653872182 66.01162867841772, 50.52801209904483 53.6747822817552 C62.61839765936784 41.33793588509268, 76.46040118730171 30.46224241909264, 91.46444752558688 22.210852597241484 C106.46849386387204 13.95946277539033, 127.13990143995593 7.7475506373385485, 140.55229012875583 4.166443350648279 C153.96467881755572 0.5853360639580103, 163.65056166414536 0.6613205937203617, 171.9387796583862 0.7242088770998691 C180.22699765262706 0.7870971604793766, 190.4437279000592 1.5785786669500843, 190.2815980942009 4.543773050925324 M133.79825630719205 4.662934770405315 C148.85561732356845 -1.8646031599716464, 168.38045771924817 0.5619977463856809, 185.23871346610775 1.6298105877385467 C202.09696921296734 2.6976234290914123, 218.8658000118352 5.494865290457109, 234.94779078834955 11.06981181852251 C251.0297815648639 16.64475834658791, 267.9722432179169 24.91929150506307, 281.7306581251938 35.079489756130954 C295.48907303247074 45.239688007198836, 307.21029408075685 58.30859107797175, 317.4982802320112 72.03100132492979 C327.78626638326557 85.75341157188782, 337.50183360782967 100.9572561554609, 343.45857503272 117.41395123787919 C349.4153164576103 133.87064632029748, 352.32941519990015 153.38947285065856, 353.23872878135296 170.77117181943953 C354.14804236280577 188.1528707882205, 353.2992306300796 205.34638728517726, 348.9144565214367 221.70414505056493 C344.5296824127938 238.0619028159526, 336.098690630827 254.32335077611225, 326.9300841294956 268.9177184117655 C317.7614776281642 283.5120860474188, 306.3387264591786 297.6240298236259, 293.90281751344844 309.2703508644845 C281.4669085677183 320.9166719053431, 267.7809383314759 331.3968007436435, 252.3146304551148 338.79564465691715 C236.8483225787537 346.1944885701908, 218.45972519796342 351.12038852714, 201.10497025528184 353.6634143441263 C183.75021531260026 356.2064401611126, 165.218658065294 356.51012096527546, 148.18610079902535 354.0537995588348 C131.15354353275671 351.5974781523941, 114.18781263034907 346.8230688346603, 98.90962665767006 338.9254859054823 C83.63144068499105 331.02790297630423, 69.23390853318783 318.54913129442406, 56.51698496295131 306.6683019837664 C43.800061392714795 294.78747267310877, 31.417466060207623 282.48503876300845, 22.608085236250957 267.6405100415363 C13.798704412294294 252.79598132006416, 7.490581204186251 234.69842181537032, 3.6607000192113333 217.6011296549336 C-0.16918116576358466 200.50383749449688, -1.534610372401185 182.39864959584781, -0.37120187359855095 165.056757078916 C0.7922066252040831 147.7148645619842, 4.277146122095298 129.73924440572918, 10.641151012027137 113.54977455334284 C17.005155901958975 97.3603047009565, 27.057622614398248 81.58262620793812, 37.812827465992484 67.91993796459799 C48.56803231758672 54.257249721257864, 61.52493938953494 41.26121490114504, 75.17238012159257 31.573645093302076 C88.81982085365019 21.886075285459114, 110.07225627871863 13.94328619944331, 119.69747185833822 9.794519117540204 C129.3226874379578 5.645752035637098, 130.46930255379402 6.739784435274686, 132.9236735993101 6.6810426018834335 C135.37804464482616 6.622300768492181, 133.7381879589507 6.616502701976486, 134.42369813143455 9.44206811719269" stroke="none" stroke-width="0" fill="#ff0000ae"></path><path d="M225.65635543465953 6.172886406740588 C242.25893900737765 8.083791325770122, 259.50730108050755 20.065119370445977, 273.81319119469214 29.53841195398394 C288.11908130887673 39.0117045375219, 300.63426955732 49.995950467262766, 311.49169611976697 63.01264190796837 C322.34912268221393 76.02933334867399, 332.1355605246221 91.52309274337226, 338.95775056937384 107.6385605982176 C345.77994061412556 123.75402845306293, 350.4683916676204 142.37030928689262, 352.42483638827724 159.70544903704038 C354.3812811089341 177.04058878718814, 354.1503016575097 194.76709158894184, 350.6964188933149 211.64939909910424 C347.2425361291201 228.53170660926665, 339.9984270643998 245.71837304844516, 331.7015398031083 260.9992940980148 C323.4046525418168 276.28021514758444, 312.9213025840171 290.9643310997087, 300.9150953255659 303.33492539652207 C288.90888806711473 315.7055196933354, 274.59469556583133 326.92907962723723, 259.6642962524012 335.22285987889495 C244.73389693897104 343.5166401305527, 228.02973170068603 349.9580189372759, 211.332699444985 353.0976069064685 C194.63566718928396 356.23719487566115, 176.71759694842393 355.8141602347126, 159.48210271819502 354.06038769405086 C142.2466084879661 352.30661515338915, 123.7095976971153 349.0768711470828, 107.91973406361157 342.5749716624983 C92.12987043010784 336.0730721779138, 77.99697950992628 326.0949699500394, 64.74292091717264 315.04899078654387 C51.488862324418996 304.00301162304834, 37.891156311070745 290.82252497492317, 28.39538250708972 276.29909668152516 C18.899608703108697 261.77566838812714, 12.43829952214902 244.54257707042674, 7.768278093286511 227.90842102615585 C3.098256664424004 211.27426498188495, 0.2325835850671941 193.82707753500017, 0.3752539339146779 176.4941604158998 C0.5179242827621616 159.16124329679946, 3.653373395831305 140.42310830675558, 8.624300186371414 123.91091831155376 C13.595226976911523 107.39872831635194, 20.54376389377329 91.42852507054185, 30.200814677155336 77.42102044468889 C39.85786546053738 63.413515818835926, 53.005160219520306 50.790647099415175, 66.56660488666368 39.86589055643597 C80.12804955380706 28.941134013456768, 95.6391678105469 18.495845044810306, 111.56948268001558 11.872481186813673 C127.49979754948427 5.24911732881704, 145.22482214895317 1.4824384850874377, 162.14849410347583 0.12570740845617934 C179.0721660579985 -1.231023668175079, 201.84976202815122 2.321416871180678, 213.11151440715162 3.732094727026123 C224.37326678615202 5.142772582871568, 226.30130006794704 7.005520754712468, 229.71900837747825 8.589774543528847 C233.13671668700945 10.174028332345225, 234.45360601754848 10.529251443806151, 233.61776426433886 13.237617459924394 M158.0867797264251 1.6916969906326642 C174.11589384796213 -2.9159413615193968, 192.8098293263173 -0.8119913710506381, 209.6002213250406 2.6053677848939287 C226.3906133237639 6.022726940838496, 243.59218785641613 13.767766189647444, 258.82913171876487 22.195851926300065 C274.0660755811136 30.623937662952684, 288.63497287334957 41.178509508928826, 301.02188449913297 53.17388220480966 C313.40879612491636 65.16925490069049, 325.14235519149224 78.92767620500541, 333.15060147346514 94.16808810158507 C341.15884775543805 109.40849999816473, 345.82936641690515 127.52105596359102, 349.0713621909704 144.61635358428765 C352.3133579650356 161.71165120498426, 354.03094895236893 179.91388466453986, 352.6025761178566 196.73987382576482 C351.17420328334424 213.56586298698977, 347.2140929117393 230.0270204033173, 340.5011251838963 245.5722885516373 C333.78815745605334 261.11755669995733, 323.3784245295071 276.7969182972374, 312.3247697507989 290.011482715685 C301.27111497209074 303.2260471341326, 288.34030593310393 315.22518333188617, 274.1791965116473 324.85967506232305 C260.0180870901907 334.4941667927599, 243.90563080067915 342.89351717794955, 227.35811322205933 347.8184330983062 C210.8105956434395 352.7433490186628, 191.946174467456 354.41288270518123, 174.89409103992833 354.4091705844628 C157.84200761240066 354.40545846374437, 141.40273964636515 352.78142741466667, 125.04561265689335 347.79616037399563 C108.68848566742157 342.8108933333246, 91.24470151629612 334.13363726462575, 76.75132910309763 324.49756834043654 C62.25795668989914 314.86149941624734, 48.91934549721741 303.37264611761987, 38.08537817770241 289.97974682886047 C27.251410858187413 276.5868475401011, 17.82527820400524 260.18778161161634, 11.747525186007636 244.14017260788034 C5.669772168010032 228.09256360414437, 2.842099741136461 210.96940297819296, 1.6188600697167885 193.6940928064446 C0.3956203982971165 176.4187826346962, 0.9436355240891743 157.64201324150437, 4.408087157489604 140.48831157739005 C7.872538790890033 123.33460991327573, 13.914763204550217 105.94373144559593, 22.405569870119365 90.77188282175862 C30.89637653568851 75.60003419792132, 43.18286626781242 61.18487269663812, 55.35292715090449 49.45721983436624 C67.52298803399655 37.72956697209437, 80.26498304897389 28.020199659041648, 95.42593516867177 20.405965648127363 C110.58688728836965 12.79173163721308, 135.97170279991565 6.82953556129444, 146.31863986909178 3.7718157688805434 C156.66557693826792 0.714095976466647, 155.34947588063272 1.7438621875291982, 157.50755758372867 2.0596468936439862 C159.66563928682461 2.3754315997587745, 158.81055946900614 2.810741035169291, 159.26713008766737 5.666524005569272" stroke="#000000" stroke-width="1" fill="none"></path></g><g transform="translate(96.80571198713028 178.567578439258) rotate(0 176.58527755430418 177.80732099758654)"><path d="M244.11560890860335 13.51308122510818 C260.2559197945104 16.915909969029357, 276.5475709205048 28.97289255697047, 289.7939923382326 39.947937422840425 C303.0404137559604 50.92298228871038, 314.3080896539502 64.66822397818453, 323.59413741496996 79.3633504203279 C332.8801851759897 94.05847686247128, 340.6913996636872 111.43845958785789, 345.51027890435114 128.1186960757007 C350.32915814501507 144.79893256354353, 352.5508454527843 162.42449730597792, 352.5074128589537 179.44476934738486 C352.46398026512315 196.4650413887918, 350.21465469946247 213.83083300134467, 345.2496833413678 230.2403283241423 C340.28471198327316 246.64982364693992, 332.47432776728994 263.4165204766632, 322.71758471038595 277.9017412841706 C312.96084165348196 292.386962091678, 300.1236603190857 306.32983120199077, 286.709224999944 317.15165316918683 C273.29478968080235 327.9734751363829, 258.0504395806697 336.5854278372564, 242.2309727955361 342.8326730873471 C226.4115060104025 349.07991833743773, 208.8927625479676 353.1516315079837, 191.79242428914228 354.63512466973077 C174.69208603031694 356.1186178314778, 156.6141270211009 355.28694652177626, 139.6289432425842 351.73363205782925 C122.6437594640675 348.18031759388225, 105.02517290708157 341.7723137020113, 89.88132161804211 333.31523788604864 C74.73747032900265 324.858162070086, 60.617921478701156 313.36129296962145, 48.765835508347465 300.9911771620534 C36.91374953799377 288.6210613544854, 26.41350452544445 274.4470728614389, 18.768805795919945 259.0945430406406 C11.124107066395442 243.74201321984225, 5.856536186379074 225.95533087233906, 2.8976431312004536 208.87599823726333 C-0.061249923978166976 191.7966656021876, -0.8814403785266478 173.8146437258517, 1.0154474648482221 156.6185472301862 C2.912335308223092 139.4224507345207, 7.166417575436365 121.69722562718299, 14.278970191449673 105.69941926327036 C21.39152280746298 89.70161289935773, 32.276189156527785 73.72824868715618, 43.69076316092807 60.631709046710455 C55.10533716532836 47.53516940626472, 68.3302470549183 36.19806373174194, 82.7664142178514 27.12018142059597 C97.20258138078451 18.04229910945, 113.89153446690966 10.644720957039848, 130.30776613852672 6.164415179834634 C146.72399781014377 1.6841094026294217, 164.03955223094874 -0.3290230691964192, 181.2638042475537 0.23834675736469535 C198.48805626415867 0.8057165839258099, 220.82508859340513 6.38366451935129, 233.65327823815642 9.568634139201322 C246.4814678829077 12.753603759051353, 252.45920470767408 15.777155672297914, 258.2329421160614 19.348164476464888 C264.0066795244487 22.919173280631863, 269.7327530236187 28.070160813267364, 268.2957026884803 30.99468696420317 M134.16851677539108 5.869678989796313 C149.38100849657508 -0.7595505302629606, 169.2301775623859 0.7484854744958795, 186.44563385009968 1.5246471823111278 C203.66109013781346 2.300808890126376, 221.44611958240966 4.806990341566997, 237.4612545016738 10.526649236687803 C253.47638942093795 16.246308131808608, 268.9572943144248 25.139106621282878, 282.5364433656845 35.842600553035965 C296.11559241694414 46.54609448478905, 308.71390291302066 60.7447435683773, 318.93614880923167 74.74761282720631 C329.1583947054427 88.75048208603532, 338.28889116423903 103.60641550620163, 343.8699187429505 119.85981610601002 C349.450946321662 136.1132167058184, 351.8357687034229 154.79006692815472, 352.4223142815007 172.26801642605662 C353.0088598595785 189.74596592395852, 351.95887647926793 208.1232699078183, 347.38919221141725 224.7275130934214 C342.8195079435666 241.33175627902452, 333.9775010529951 257.4217251911403, 325.00420867439664 271.89347553967525 C316.0309162957982 286.3652258882102, 306.07446066515377 300.23080001070775, 293.54943793982665 311.558015184631 C281.0244152144995 322.8852303585543, 265.8298291837886 332.5475287396044, 249.85407232243392 339.8567665832148 C233.87831546107924 347.16600442682517, 215.15044733339232 352.99020058224113, 197.6948967716985 355.41344224629347 C180.23934621000467 357.8366839103458, 162.1149282930679 357.3872139926027, 145.12076895227094 354.3962165675287 C128.12660961147398 351.4052191424547, 110.7612095920712 345.7638944741206, 95.72994072691672 337.4674576958495 C80.69867186176225 329.17102091757835, 67.34869684180256 316.71484096773617, 54.93315576134408 304.617595897902 C42.5176146808856 292.5203508280678, 29.62925320372623 279.6593153619675, 21.236694244165818 264.8839872768443 C12.844135284605407 250.10865919172113, 8.160519662121411 232.9873550113105, 4.577802003981617 215.9656273871629 C0.9950843458418226 198.94389976301528, -1.8086280277895526 180.1137860015121, -0.2596117046729489 162.75362153195863 C1.2894046184436547 145.39345706240516, 7.64305036703018 127.96531974264022, 13.871899942681239 111.80464056984218 C20.100749518332297 95.64396139704414, 26.701182671395117 79.43173155945078, 37.113485749233405 65.7895464951704 C47.52578882707169 52.147361430890015, 62.02428312771879 39.315241775718675, 76.34571840971097 29.95153018415988 C90.66715369170315 20.58781859260108, 113.16426851627763 13.990869493469685, 123.04209744118648 9.607276945817603 C132.91992636609532 5.223684398165521, 133.43991469184584 3.79445712678338, 135.61269195916407 3.649974898247393 C137.7854692264823 3.505492669711406, 135.59136523075657 5.432394881708598, 136.07876104509592 8.74038357460168" stroke="none" stroke-width="0" fill="#00ff0080"></path><path d="M215.4112090247379 4.48703034984436 C232.12914297154717 5.3311321718337865, 249.51196754603768 14.227048221795462, 264.36154933902526 22.921087671780498 C279.21113113201284 31.615127121765532, 292.8481442791251 43.92377945913061, 304.50869978266337 56.65126704975458 C316.16925528620163 69.37875464037856, 326.6204561529963 83.81146330439859, 334.32488236025483 99.28601321552433 C342.02930856751334 114.76056312665008, 347.80521884703086 132.41465783493933, 350.73525702621447 149.49856651650904 C353.6652952053981 166.58247519807875, 354.04045945396376 184.82241039531016, 351.90511143535645 201.78946530494255 C349.76976341674913 218.75652021457495, 345.0122683898351 235.82411742919086, 337.9231689145705 251.30089597430336 C330.8340694393059 266.7776745194159, 320.7286125533134 281.7423391679491, 309.37051458376885 294.6501365756175 C298.0124166142243 307.5579339832859, 284.34339593379485 319.59487691271113, 269.77458109730344 328.7476804203138 C255.20576626081206 337.9004839279165, 238.53700582259276 345.21877445671595, 221.9576255648205 349.56695762123366 C205.37824530704822 353.91514078575136, 187.46915921149878 355.32554790621515, 170.29829955066987 354.83677940742007 C153.12743988984096 354.348010908625, 135.3280658622291 352.12959213531656, 118.93246759984694 346.63434662846305 C102.5368693374648 341.13910112160954, 85.83937236083115 332.19983783270845, 71.924709976377 321.865306366299 C58.01004759192285 311.5307748998896, 45.768513789119325 298.5276343157974, 35.44449329312204 284.6271578300064 C25.120472797124748 270.7266813442154, 15.784005958069041 254.81401173740562, 9.980587000393257 238.46244745155303 C4.177168042717473 222.11088316570044, 1.3801449884259633 203.65604732790013, 0.6239795470673357 186.51777211489096 C-0.13218589429129202 169.3794969018818, 1.2190842777763988 152.3208297276052, 5.44359435224149 135.63279617349804 C9.66810442670658 118.94476261939087, 17.244780341002368 101.4690544070683, 25.971039993857886 86.389570790248 C34.697299646713404 71.3100871734277, 45.24548865368532 56.86132767299486, 57.80115226937458 45.15589447257622 C70.35681588506384 33.45046127215758, 85.53147652639848 23.415092980998693, 101.30502168799345 16.156971587736166 C117.07856684958841 8.898850194473638, 135.38460590479923 3.978590598463503, 152.4424232389444 1.6071661130010568 C169.50024057308957 -0.7642583724613892, 192.54445360911527 1.2338183154574218, 203.65192569286455 1.9284246749614908 C214.75939777661384 2.62303103446556, 215.97201234534933 4.319316115011641, 219.08725574144012 5.77480427002547 C222.2024991375309 7.230292425039299, 222.95759814801445 8.0089068244988, 222.34338606940926 10.661353605044468 M103.9525314070826 14.6441162784499 C117.42993812486216 5.40588131645911, 136.87103341559035 2.4007705018610794, 153.80751147582038 0.5644374695103807 C170.7439895360504 -1.2718955628403183, 188.68796429924524 0.394650926503298, 205.57139976846278 3.6261180843457055 C222.45483523768033 6.857585242188113, 239.77791689043468 12.499008563474067, 255.1081242911257 19.953240416564824 C270.43833169181676 27.40747226965558, 284.84725680891455 36.464256615589754, 297.55264417260895 48.35150920289024 C310.25803153630335 60.23876179019073, 322.5684380152877 75.85073883701934, 331.34044847329216 91.27675594036775 C340.1124589312966 106.70277304371616, 346.57925143966446 124.06999575110102, 350.1847069206355 140.90761182298073 C353.79016240160655 157.74522789486045, 354.40996905736654 175.01815562137907, 352.97318135911837 192.302452371646 C351.5363936608702 209.58674912191296, 347.8148385477857 228.77627591827604, 341.5639807311465 244.61339232458238 C335.3131229145073 260.4505087308887, 326.49269707875 273.84664199546063, 315.4680344592832 287.32515080948406 C304.44337183981645 300.8036596235075, 289.6911100130619 315.3909044551156, 275.4160050143459 325.48444520872283 C261.1409000156299 335.57798596233005, 246.19856381053478 342.9357768709468, 229.817404466987 347.8863953311273 C213.43624512343922 352.83701379130775, 194.23897221196904 355.0148350418954, 177.12904895305925 355.1881559698055 C160.01912569414947 355.3614768977156, 143.29124527058318 353.7205127098073, 127.1578649135283 348.92632089858785 C111.02448455647341 344.1321290873684, 94.86318398815456 336.14819398356235, 80.32876681072995 326.42300510248907 C65.79434963330533 316.6978162214158, 51.25293312094863 303.7236811688647, 39.95136184898064 290.57518761214806 C28.649790577012645 277.4266940554314, 18.832306107023538 263.4154531748456, 12.519339178921996 247.5320437621894 C6.206372250820455 231.6486343495332, 3.3843950425652123 212.84314314043496, 2.073560280371396 195.27473113621085 C0.7627255181775798 177.70631913198673, 1.5231604287705522 158.80268407030658, 4.6543306057591 142.12157173684477 C7.785500782747647 125.44045940338297, 13.21557010717239 110.23581410254793, 20.86058134230268 95.18805713544003 C28.50559257743297 80.14030016833213, 38.41794369872309 64.17646903443881, 50.52439801654084 51.83502993419735 C62.63085233435859 39.49359083395589, 84.66959822229701 27.191285872936835, 93.49930724920917 21.13942253399128 C102.32901627612132 15.087559195045724, 101.4673775511806 16.12253008835836, 103.5026521780138 15.523849900524027 C105.537926804847 14.925169712689694, 104.27808259019842 14.998189570248988, 105.71095501020838 17.547341406985282" stroke="#000000" stroke-width="1" fill="none"></path></g><g transform="translate(47 149.18222043443222) rotate(0 39.5 21)"><text x="39.5" y="33" font-family="Helvetica, Segoe UI Emoji" font-size="36px" fill="#000000" text-anchor="middle" style="white-space: pre;" direction="ltr">Time</text></g><g transform="translate(398 151.18222043443222) rotate(0 57 21)"><text x="57" y="33" font-family="Helvetica, Segoe UI Emoji" font-size="36px" fill="#000000" text-anchor="middle" style="white-space: pre;" direction="ltr">Energy</text></g><g transform="translate(214 430.1822204344322) rotate(0 49 21)"><text x="49" y="33" font-family="Helvetica, Segoe UI Emoji" font-size="36px" fill="#000000" text-anchor="middle" style="white-space: pre;" direction="ltr">Focus</text></g><g transform="translate(234 99.18222043443222) rotate(0 47 11.5)"><text x="47" y="18" font-family="Helvetica, Segoe UI Emoji" font-size="20px" fill="#000000" text-anchor="middle" style="white-space: pre;" direction="ltr">Distraction</text></g><g transform="translate(203 216.18222043443222) rotate(0 72.5 16)"><text x="72.5" y="25" font-family="Helvetica, Segoe UI Emoji" font-size="28px" fill="#000000" text-anchor="middle" style="white-space: pre;" direction="ltr">Productivity</text></g><g transform="translate(307.5 297.6822204344322) rotate(324.8193006387579 56 10.5)"><text x="56" y="16" font-family="Helvetica, Segoe UI Emoji" font-size="18.124999999999996px" fill="#000000" text-anchor="middle" style="white-space: pre;" direction="ltr">Responsibility</text></g><g transform="translate(145.4999999999999 300.6822204344322) rotate(29.999999999999964 44 11.5)"><text x="44" y="18" font-family="Helvetica, Segoe UI Emoji" font-size="20px" fill="#000000" text-anchor="middle" style="white-space: pre;" direction="ltr">Exhaustion</text></g></svg>