<svg xmlns="http://www.w3.org/2000/svg" viewBox="0 423.5 600 176.5">
  <defs/>
  <linearGradient id="a" gradientUnits="userSpaceOnUse" x1=".509" y1="599.626" x2="1.509" y2="599.626" gradientTransform="matrix(665.004 0 0 -255.192 -338.21 153492.078)">
    <stop offset="0" stop-color="#F57C00"/>
    <stop offset=".2" stop-color="#FFA000"/>
    <stop offset=".5" stop-color="#FFCA28"/>
    <stop offset=".8" stop-color="#FFA000"/>
    <stop offset="1" stop-color="#F57C00"/>
  </linearGradient>
  <path fill="url(#a)" d="M0 449.004C435.42 341.244 443.5 696.5 665.004 344.809L600 600H0V449.004z"/>
  <linearGradient id="b" gradientUnits="userSpaceOnUse" x1=".651" y1="598.417" x2="1.651" y2="598.417" gradientTransform="matrix(36 0 0 60 450 300)">
    <stop offset="0" stop-color="#F57C00"/>
    <stop offset=".1" stop-color="#FFA000"/>
    <stop offset=".6" stop-color="#FFCA28"/>
    <stop offset=".9" stop-color="#FFA000"/>
    <stop offset="1" stop-color="#F57C00"/>
  </linearGradient>
  <path fill="url(#b)" d="M494.684 433.048c8.354 18.958-37.118 37.529-16.467 55.971 7.024 6.272 24.107 6.563 27.189-4.314 2.185-7.717-7.078-23.062 3.853-26.902-3.054-1.136-5.478.759-7.05 3.193-2.917 4.151-1.881-6.565-1.881-6.565s1.522-16.859-5.644-21.383z"/>
  <path fill="#FFCA28" d="M495.235 467.664c2.251 5.018 4.872 10.81 2.247 16.251-2.646 5.478-9.372 7.06-14.218 3.444-6.842-5.107-1.983-12.566 1.736-17.821-.188 1.427-1.626 10.577 1.521 10.393 2.384-.431 2.21-4.06 2.198-5.811-.028-5.217-1.696-15.109 5.636-16.219-3.751.566.189 8.222.88 9.763z"/>
  <path fill="#FAF089" d="M491.563 479.643c2.125-3.646 1.344-7.991.956-11.943 1.813 4.698 3.128 11.101 2.258 14.225s-6.07 5.218-6.752 3.372c-.683-1.848 2.375-3.662 3.538-5.654z"/>
</svg>