<svg xmlns="http://www.w3.org/2000/svg" viewBox="0 0 800 800"><defs/><path fill="#D73502" d="M221 95c29.197 46.469 55.102 96.232 84 143-70.958 113.045-139.924 228.07-213 339 42.588-161.083 85.843-321.487 129-482zM93 578c132.156-5.176 265.554-9.114 398-14 29.498 46.835 57.094 95.573 84 145C415.544 665.454 93.113 579.22 93 578z"/><path fill="#FAC000" d="M711 218c-37 69.188-89.557 159.473-120 212-166.559 49.111-334.391 96.936-499 148 120.591-116.712 252.584-241.273 378-360 74.432.543 156.884.389 241 0z"/></svg>