<?xml version="1.0" standalone="no"?>
<!DOCTYPE svg PUBLIC "-//W3C//DTD SVG 20010904//EN"
 "http://www.w3.org/TR/2001/REC-SVG-20010904/DTD/svg10.dtd">
<svg version="1.0" xmlns="http://www.w3.org/2000/svg"
 width="700.000000pt" height="700.000000pt" viewBox="0 0 700.000000 700.000000"
 preserveAspectRatio="xMidYMid meet">
<metadata>
Created by potrace 1.11, written by Peter Selinger 2001-2013
</metadata>
<g transform="translate(0.000000,700.000000) scale(0.100000,-0.100000)"
fill="#000000" stroke="none">
<path d="M3993 6539 c23 -57 69 -218 81 -284 13 -79 15 -340 2 -395 -3 -14
-11 -52 -17 -85 -12 -67 -76 -268 -109 -342 -69 -152 -222 -433 -242 -441 -4
-2 -8 -8 -8 -13 0 -29 -355 -504 -539 -721 -10 -13 -49 -59 -86 -103 -37 -44
-77 -91 -89 -105 -11 -14 -43 -52 -71 -85 -27 -33 -52 -62 -55 -65 -13 -13
-168 -200 -274 -330 -141 -174 -129 -160 -191 -240 -28 -36 -52 -67 -55 -70
-3 -3 -30 -40 -60 -83 -30 -44 -64 -91 -76 -105 -38 -50 -200 -316 -246 -407
-76 -149 -149 -339 -174 -455 -4 -19 -8 -37 -9 -40 -1 -5 -9 -51 -22 -125 -6
-39 -5 -262 2 -295 3 -14 10 -50 15 -81 45 -247 200 -508 441 -746 117 -115
156 -148 249 -208 245 -159 530 -257 895 -310 91 -13 452 -13 550 0 108 15
283 51 324 67 14 5 33 11 41 13 35 9 109 38 170 67 425 202 668 559 672 990 1
101 -8 270 -17 317 -2 10 -6 42 -10 72 -8 68 -13 100 -26 169 -6 30 -12 69
-15 85 -2 17 -6 41 -9 55 -8 39 -35 191 -41 230 -3 19 -8 49 -11 65 -9 40 -11
53 -18 100 -3 22 -7 49 -9 60 -2 12 -7 48 -11 80 -4 33 -9 68 -11 77 -15 84
-21 378 -10 463 14 104 18 122 38 190 69 236 232 413 462 500 l49 19 -39 14
c-57 21 -216 21 -284 0 -130 -41 -254 -142 -377 -309 -78 -105 -87 -115 -124
-124 -47 -12 -82 54 -96 180 -13 120 -7 453 13 650 6 66 7 502 0 610 -21 364
-70 642 -162 911 -62 184 -158 353 -266 469 -58 62 -155 139 -145 114z"/>
</g>
</svg>
